<?xml version="1.0" standalone="no"?>
<!DOCTYPE svg PUBLIC "-//W3C//DTD SVG 1.1//EN" "http://www.w3.org/Graphics/SVG/1.1/DTD/svg11.dtd" >
<svg xmlns="http://www.w3.org/2000/svg">
<metadata></metadata>
<defs>
<font id="cartogothic_pro_lightitalic" horiz-adv-x="1097" >
<font-face units-per-em="2048" ascent="1552" descent="-496" />
<missing-glyph horiz-adv-x="512" />
<glyph unicode="&#xfb01;" horiz-adv-x="1105" d="M158 0l188 893h-215l23 104h215l22 109q31 145 66 217q38 82 108 126t162 44q68 0 133 -23l-26 -108q-49 20 -93 20q-52 0 -95 -22t-66 -60q-12 -22 -30 -78t-28 -104l-26 -121h249l-22 -104h-250l-188 -893h-127zM993 1274l37 170h148l-35 -170h-150zM735 0l211 993h127 l-211 -993h-127z" />
<glyph unicode="&#xfb02;" horiz-adv-x="1107" d="M158 0l188 893h-215l23 104h215l22 109q31 145 66 217q38 82 108 126t162 44q68 0 133 -23l-26 -108q-49 20 -93 20q-52 0 -95 -22t-66 -60q-12 -22 -30 -78t-28 -104l-26 -121h249l-22 -104h-250l-188 -893h-127zM735 0l314 1475h127l-314 -1475h-127z" />
<glyph unicode="&#xfb03;" horiz-adv-x="1683" d="M158 0l188 893h-215l23 104h215l22 109q31 145 66 217q38 82 108 126t162 44q68 0 133 -23l-26 -108q-49 20 -93 20q-52 0 -95 -22t-66 -60q-12 -22 -30 -78t-28 -104l-26 -121h450l23 109q32 149 65 217q38 82 108.5 126t162.5 44q68 0 133 -23l-27 -108q-49 20 -92 20 q-52 0 -95.5 -22t-66.5 -60q-32 -62 -57 -182l-27 -121h250l-23 -104h-249l-189 -893h-127l189 893h-451l-188 -893h-127zM1571 1274l37 170h147l-35 -170h-149zM1313 0l211 993h127l-211 -993h-127z" />
<glyph unicode="&#xfb04;" horiz-adv-x="1685" d="M158 0l188 893h-215l23 104h215l22 109q31 145 66 217q38 82 108 126t162 44q68 0 133 -23l-26 -108q-49 20 -93 20q-52 0 -95 -22t-66 -60q-12 -22 -30 -78t-28 -104l-26 -121h450l23 109q32 149 65 217q38 82 108.5 126t162.5 44q68 0 133 -23l-27 -108q-49 20 -92 20 q-52 0 -95.5 -22t-66.5 -60q-32 -62 -57 -182l-27 -121h250l-23 -104h-249l-189 -893h-127l189 893h-451l-188 -893h-127zM1313 0l313 1475h127l-313 -1475h-127z" />
<glyph horiz-adv-x="2048" />
<glyph horiz-adv-x="2048" />
<glyph unicode="&#xd;" horiz-adv-x="2048" />
<glyph unicode=" "  horiz-adv-x="512" />
<glyph unicode="&#x09;" horiz-adv-x="512" />
<glyph unicode="&#xa0;" horiz-adv-x="512" />
<glyph unicode="!" horiz-adv-x="710" d="M354 338l197 1028h160l-242 -1028h-115zM260 0l35 166h160l-35 -166h-160z" />
<glyph unicode="&#x22;" horiz-adv-x="600" d="M487 928l99 547h133l-135 -547h-97zM217 928l98 547h134l-136 -547h-96z" />
<glyph unicode="#" d="M201 0l94 444h-189l23 103h188l66 307h-190l22 102h191l86 410h108l-86 -410h293l86 410h108l-86 -410h183l-21 -102h-184l-66 -307h185l-23 -103h-182l-94 -444h-111l94 444h-290l-95 -444h-110zM426 547h293l65 307h-292z" />
<glyph unicode="$" d="M84 66l39 127q140 -78 297 -84l121 567q-135 76 -195.5 156t-60.5 180t51.5 186.5t138.5 130.5q74 39 213 47l39 180h90l-39 -180q168 0 285 -63l-43 -123q-106 73 -264 76l-105 -492q156 -89 219.5 -171.5t63.5 -194.5q0 -179 -122.5 -292.5t-326.5 -123.5l-39 -178h-90 l39 178q-186 8 -311 74zM571 821l95 443q-114 -15 -178 -78t-64 -160q0 -66 32.5 -112t114.5 -93zM510 111q58 6 94.5 18.5t73.5 38.5q54 40 86.5 99.5t32.5 119.5q0 73 -41 129.5t-135 112.5z" />
<glyph unicode="%" horiz-adv-x="1732" d="M307 -86l1106 1538h111l-1106 -1538h-111zM453 662q-113 0 -177.5 64.5t-64.5 176.5q0 72 23.5 156.5t60.5 146.5q57 94 141.5 144.5t184.5 50.5q117 0 183 -63t66 -175q0 -81 -26 -170t-68 -153q-117 -178 -323 -178zM481 764q142 0 213 160q49 107 49 225 q0 73 -35.5 111t-103.5 38q-70 0 -126.5 -42t-90.5 -119q-20 -46 -34.5 -112t-14.5 -112q0 -68 38.5 -108.5t104.5 -40.5zM963 203q0 77 23 160.5t61 146.5q57 94 141 144.5t184 50.5q118 0 184 -62.5t66 -173.5q0 -81 -26.5 -172t-67.5 -154q-117 -178 -324 -178 q-110 0 -175.5 65t-65.5 173zM1087 215q0 -66 39.5 -106.5t104.5 -40.5q143 0 215 159q49 107 49 226q0 73 -35.5 111t-103.5 38q-70 0 -127.5 -42.5t-91.5 -119.5q-20 -46 -35 -112t-15 -113z" />
<glyph unicode="&#x26;" horiz-adv-x="1306" d="M80 338q0 100 51 188t143 146q93 59 248 98q-133 189 -133 311q0 134 103.5 221t261.5 87q152 0 242.5 -76.5t90.5 -202.5q0 -131 -96 -225t-297 -160l267 -385q127 127 192 412h125q-29 -146 -98.5 -282.5t-157.5 -223.5l162 -246h-150l-100 156q-122 -97 -218.5 -135.5 t-219.5 -38.5q-187 0 -301.5 98t-114.5 258zM635 803q158 44 243 119t85 172q0 83 -58 136.5t-149 53.5q-104 0 -173 -60.5t-69 -152.5q0 -25 7 -48.5t15 -39t36 -65.5t49 -89q6 -12 14 -26zM217 352q0 -108 81.5 -183t199.5 -75q199 0 379 160l-295 440 q-190 -60 -277.5 -142t-87.5 -200z" />
<glyph unicode="'" horiz-adv-x="329" d="M217 928l98 547h134l-136 -547h-96z" />
<glyph unicode="(" horiz-adv-x="649" d="M113 338q0 212 79.5 423t249.5 453q91 130 205 261h109q-292 -384 -407.5 -644t-115.5 -532q0 -146 29 -306.5t96 -387.5h-88q-86 236 -121.5 404t-35.5 329z" />
<glyph unicode=")" horiz-adv-x="649" d="M248 -135q-92 -130 -207 -260h-109q287 373 406 639t119 536q0 147 -29 308t-98 387h88q85 -234 121 -404t36 -330q0 -212 -79 -423t-248 -453z" />
<glyph unicode="*" d="M434 823l-76 88l248 193l-270 160l61 100l254 -180l60 309l114 -25l-80 -303l312 37l12 -117l-313 -14l129 -287l-109 -45l-108 293z" />
<glyph unicode="+" d="M547 252v391h-404v109h404v389h108v-389h404v-109h-404v-391h-108z" />
<glyph unicode="," horiz-adv-x="546" d="M164 168h168l-240 -434h-131z" />
<glyph unicode="-" horiz-adv-x="499" d="M2 463l23 108h499l-22 -108h-500z" />
<glyph unicode="." horiz-adv-x="546" d="M98 0l35 166h160l-35 -166h-160z" />
<glyph unicode="/" horiz-adv-x="712" d="M-104 -395h-125l977 1870h120z" />
<glyph unicode="0" d="M113 416q0 161 55 366.5t133 339.5q158 267 428 267q167 0 261.5 -112t94.5 -310q0 -197 -75.5 -441.5t-173.5 -365.5q-144 -178 -365 -178q-163 0 -260.5 118.5t-97.5 315.5zM250 401q0 -138 63.5 -222.5t167.5 -84.5q158 0 273 182q86 132 141 332.5t55 372.5 q0 137 -61 216t-168 79q-206 0 -338 -287q-58 -127 -95.5 -292t-37.5 -296z" />
<glyph unicode="1" d="M463 0l223 1049q28 129 45 178q-57 -46 -133 -94l-141 -91l-66 91l395 233h97l-291 -1366h-129z" />
<glyph unicode="2" d="M6 0l21 98q140 122 213 185q208 179 325.5 288.5t193 197.5t100 146.5t24.5 124.5q0 95 -67 156t-171 61q-136 0 -346 -110l8 139q119 53 195 73.5t151 20.5q163 0 265 -92.5t102 -240.5q0 -88 -42.5 -175t-139.5 -196q-77 -88 -301 -288.5t-338 -285.5q178 7 229 7h440 l-24 -109h-838z" />
<glyph unicode="3" d="M27 47l39 115q149 -68 323 -68q172 0 287 94.5t115 235.5q0 70 -34.5 125.5t-94.5 81.5q-88 39 -240 39q-37 0 -66 -2l27 118q64 -6 102 -6q199 0 314.5 74.5t115.5 200.5q0 100 -78 160.5t-204 60.5q-157 0 -318 -80l13 125q148 68 309 68q189 0 302.5 -88t113.5 -236 q0 -139 -96 -233.5t-259 -114.5q234 -70 234 -289q0 -122 -72 -224.5t-195.5 -162t-269.5 -59.5q-190 0 -368 65z" />
<glyph unicode="4" d="M18 324l25 118l825 924h170l-198 -934h200l-24 -108h-199l-69 -324h-130l70 324h-670zM168 426q58 6 82 6h74h387l120 572q16 83 74 278q-26 -38 -49.5 -71t-28.5 -40q-6 -6 -20 -23t-39.5 -47.5t-52.5 -62.5l-398 -454q-83 -95 -149 -158z" />
<glyph unicode="5" d="M86 39l27 119q76 -35 138 -49.5t136 -14.5q198 0 324.5 104t126.5 267q0 127 -87 199.5t-241 72.5q-119 0 -266 -43l155 672h725l-22 -109h-600l-105 -432q117 25 174 25q180 0 293 -104t113 -269q0 -217 -161 -356t-410 -139q-169 0 -320 57z" />
<glyph unicode="6" d="M131 481q0 213 65 405.5t179 313.5q180 189 434 189q142 0 301 -66l-35 -113q-132 66 -270 66q-199 0 -334 -147t-192 -427q78 92 161.5 133.5t190.5 41.5q169 0 279 -112t110 -282q0 -89 -32.5 -177.5t-90.5 -158.5q-139 -165 -352 -165q-198 0 -306 130t-108 369z M270 399q0 -138 75.5 -221.5t201.5 -83.5q141 0 237.5 108.5t96.5 268.5q0 130 -76.5 211.5t-198.5 81.5q-145 0 -240.5 -104t-95.5 -261z" />
<glyph unicode="7" d="M156 0l737 1116l41 62q40 60 65 86q-79 -7 -151 -7h-559l24 109h836l-25 -117l-811 -1249h-157z" />
<glyph unicode="8" d="M72 346q0 89 46 169t126 130q86 54 225 88q-201 122 -201 301q0 154 121.5 254.5t308.5 100.5q172 0 276.5 -85.5t104.5 -226.5q0 -129 -89.5 -215.5t-284.5 -146.5q149 -66 215.5 -146.5t66.5 -193.5q0 -169 -133.5 -281t-333.5 -112q-198 0 -323 101.5t-125 262.5z M586 766q12 4 26 8q160 47 244 124t84 177q0 86 -73 143.5t-183 57.5q-120 0 -198 -67t-78 -169q0 -73 42 -137.5t136 -136.5zM213 354q0 -117 87.5 -188.5t227.5 -71.5q136 0 228 81.5t92 201.5q0 97 -66 167.5t-217 133.5q-352 -91 -352 -324z" />
<glyph unicode="9" d="M82 47l35 113q132 -66 270 -66q201 0 335 146.5t191 427.5q-78 -92 -161 -133t-191 -41q-169 0 -279 111.5t-110 281.5q0 135 64.5 250.5t175 183.5t239.5 68q77 0 149 -27t124 -74q135 -129 135 -399q0 -213 -65 -405.5t-179 -313.5q-179 -188 -434 -188q-140 0 -299 65 zM584 606q145 0 240.5 104t95.5 261q0 138 -75 221.5t-198 83.5q-141 0 -238.5 -109.5t-97.5 -267.5q0 -130 75.5 -211.5t197.5 -81.5z" />
<glyph unicode=":" horiz-adv-x="546" d="M274 827l35 166h160l-35 -166h-160zM98 0l35 166h160l-35 -166h-160z" />
<glyph unicode=";" horiz-adv-x="546" d="M307 827l37 166h160l-37 -166h-160zM164 168h168l-240 -434h-131z" />
<glyph unicode="&#x3c;" horiz-adv-x="1024" d="M119 633v108l887 408v-123l-754 -338l754 -340v-121z" />
<glyph unicode="=" d="M143 778v109h916v-109h-916zM143 506v108h916v-108h-916z" />
<glyph unicode="&#x3e;" horiz-adv-x="1024" d="M119 225v125l753 338l-753 338v123l887 -408v-108z" />
<glyph unicode="?" horiz-adv-x="1005" d="M375 336q13 60 21 93.5t25 72.5t33 61.5t52 60t73.5 70t106.5 88.5q101 83 143.5 150t42.5 141q0 86 -70.5 140.5t-180.5 54.5q-92 0 -248 -54l26 123q144 43 248 43q161 0 257.5 -80t96.5 -213q0 -117 -67 -208q-34 -48 -83 -94.5t-194 -168.5q-86 -72 -116.5 -124 t-51.5 -156h-114zM281 0l34 166h160l-35 -166h-159z" />
<glyph unicode="@" horiz-adv-x="1581" d="M375 180q-97 97 -150 229t-53 275q0 146 55.5 276.5t150 224.5t226.5 149t279 55q183 0 331 -79t232 -218.5t84 -311.5q0 -127 -46.5 -239.5t-125 -180t-166.5 -67.5q-60 0 -101 33.5t-51 93.5q-43 -63 -108 -98t-139 -35q-127 0 -209 94t-82 240q0 175 106 297t258 122 q77 0 127 -32t97 -111l24 117h105l-86 -443q-9 -46 -13 -96q-1 -40 20.5 -66t55.5 -26q92 0 164 120.5t72 274.5q0 224 -155 369t-394 145q-168 0 -307 -80t-219.5 -220.5t-80.5 -309.5q0 -121 43 -232t123 -194q168 -180 461 -180q122 0 226 24.5t214 79.5l33 -96 q-228 -107 -471 -107q-330 0 -530 203zM616 623q0 -103 54.5 -167.5t140.5 -64.5q100 0 169 96.5t69 237.5q0 95 -48 151t-131 56q-104 0 -179 -91t-75 -218z" />
<glyph unicode="A" horiz-adv-x="1337" d="M-74 0l858 1366h160l277 -1366h-140l-69 371h-709l-229 -371h-148zM377 485h610l-108 570l-5 30l-12 76l-10 64q0 2 -1 5.5t-3 11t-4 13.5q-4 -8 -9 -15.5t-8 -12.5t-4 -6q-36 -65 -39 -70q-15 -30 -57 -100z" />
<glyph unicode="B" horiz-adv-x="1105" d="M80 0l291 1368h207q122 0 174.5 -5t101.5 -22q100 -32 154.5 -105.5t54.5 -176.5q0 -125 -80 -217q-42 -50 -84 -72.5t-143 -50.5q-1 0 -4.5 -1t-9 -2.5t-9.5 -2.5q84 -23 117 -41q54 -31 87.5 -101t33.5 -153q0 -103 -55.5 -194t-153.5 -148q-77 -45 -163.5 -60.5 t-260.5 -15.5h-258zM375 768h106q122 0 189.5 13t122.5 48q63 40 99 100.5t36 127.5q0 114 -103 164q-37 20 -82.5 26t-144.5 6h-119zM238 115h112q143 0 214.5 13.5t135.5 53.5q65 42 102.5 106t37.5 136q0 65 -33 118t-90 79q-63 32 -236 32h-129z" />
<glyph unicode="C" horiz-adv-x="1210" d="M147 588q0 229 102 412t283.5 286t407.5 103q190 0 369 -76l-41 -119q-171 76 -336 76q-184 0 -332 -87.5t-231.5 -242.5t-83.5 -348q0 -214 133.5 -355t335.5 -141q138 0 307 62l-19 -131q-145 -50 -294 -50q-264 0 -432.5 170.5t-168.5 440.5z" />
<glyph unicode="D" horiz-adv-x="1325" d="M80 0l291 1366h178q156 0 222 -6t132 -25q180 -54 276.5 -189.5t96.5 -336.5q0 -258 -132 -462.5t-353 -289.5q-93 -35 -182 -46t-292 -11h-237zM238 115h145q136 0 217.5 12t153.5 43q174 75 277.5 249t103.5 392q0 129 -50 226.5t-145 154.5q-56 35 -126 47t-210 12 h-125z" />
<glyph unicode="E" horiz-adv-x="1009" d="M80 0l291 1362h680l-25 -115h-549l-102 -481h520l-25 -115h-520l-112 -536h575l-25 -115h-708z" />
<glyph unicode="F" horiz-adv-x="913" d="M80 0l289 1358h653l-25 -115h-520l-102 -477h502l-25 -115h-502l-137 -651h-133z" />
<glyph unicode="G" horiz-adv-x="1386" d="M299 160q-156 173 -156 436q0 181 74 344.5t205 269.5q105 85 248 132t301 47q201 0 397 -80l-41 -125q-176 86 -358 86q-137 0 -261.5 -44.5t-213.5 -125.5q-97 -88 -154 -223.5t-57 -276.5q0 -231 149 -377q130 -127 367 -127q65 0 112 8.5t115 32.5l100 473h-319 l24 115h453l-147 -688q-174 -60 -371 -60q-299 0 -467 183z" />
<glyph unicode="H" horiz-adv-x="1329" d="M80 0l291 1366h131l-125 -594h713l124 594h134l-291 -1366h-131l139 657h-713l-139 -657h-133z" />
<glyph unicode="I" horiz-adv-x="485" d="M80 0l291 1366h133l-291 -1366h-133z" />
<glyph unicode="J" horiz-adv-x="702" d="M-33 4l31 115q70 -23 121 -23q66 0 118 29t80 82q18 36 22.5 46t17 47.5t24 90.5t33.5 156l174 819h133l-178 -831q-57 -267 -70 -304q-8 -25 -24 -57q-44 -95 -127.5 -146t-194.5 -51q-75 0 -160 27z" />
<glyph unicode="K" horiz-adv-x="1202" d="M80 0l295 1366h131l-113 -522q-5 -30 -20 -82q27 31 55 53q17 15 38.5 35t43.5 37l604 479h197l-813 -641l583 -725h-168l-497 627q-36 45 -54 80l-2 -25l-10 -47l-12 -57l-123 -578h-135z" />
<glyph unicode="L" horiz-adv-x="927" d="M80 0l291 1366h131l-264 -1251h569l-25 -115h-702z" />
<glyph unicode="M" horiz-adv-x="1767" d="M80 0l291 1366h198l203 -944q1 -3 2 -11t4.5 -28t9.5 -51q2 -9 7 -38t11.5 -63t12.5 -69h6q32 64 142 239l616 965h203l-291 -1366h-131l215 1012q5 25 21 83.5t30 121.5l6 28h-8q-25 -68 -143 -250l-639 -995h-111l-213 985q-19 87 -45 260h-10q-7 -80 -41 -237 l-213 -1008h-133z" />
<glyph unicode="N" horiz-adv-x="1368" d="M80 0l297 1366h164l364 -952q60 -161 90 -262h11q10 98 51 292l196 922h133l-290 -1366h-170l-371 969q-61 155 -82 248h-8q-4 -53 -35 -205l-215 -1012h-135z" />
<glyph unicode="O" horiz-adv-x="1435" d="M133 545q0 224 99 420.5t268 310.5q169 113 383 113q232 0 370 -147.5t138 -397.5q0 -173 -58 -341.5t-159 -291.5q-91 -109 -228 -171.5t-289 -62.5q-246 0 -385 151t-139 417zM279 541q0 -204 106 -324.5t287 -120.5q108 0 204.5 42.5t165.5 119.5q100 115 156.5 267.5 t56.5 314.5q0 241 -149 354q-102 76 -236 76q-189 0 -333 -123q-117 -100 -187.5 -265.5t-70.5 -340.5z" />
<glyph unicode="P" horiz-adv-x="1003" d="M80 0l291 1366h200q140 0 203.5 -9.5t118.5 -37.5q80 -41 125 -119t45 -176q0 -138 -82 -248.5t-217 -154.5q-97 -31 -320 -31h-106l-125 -590h-133zM362 707h78q240 0 324 47q74 40 116 112t42 160q0 150 -121 201q-69 28 -232 28h-90z" />
<glyph unicode="Q" horiz-adv-x="1435" d="M131 545q0 232 98.5 426t269 306t375.5 112q236 0 375.5 -147.5t139.5 -397.5q0 -236 -101 -447.5t-262 -312.5q-84 -52 -164 -74l242 -274h-170l-207 246q-63 -5 -70 -5q-247 0 -386.5 151t-139.5 417zM276 541q0 -204 106.5 -324.5t287.5 -120.5q108 0 204.5 42.5 t165.5 119.5q100 115 156.5 267.5t56.5 314.5q0 196 -105 313t-280 117q-186 0 -333 -123q-117 -100 -188 -265.5t-71 -340.5z" />
<glyph unicode="R" horiz-adv-x="1116" d="M80 0l291 1368h235q136 0 204 -12t120 -45q137 -84 137 -250q0 -160 -110.5 -266t-280.5 -109l-2 -10q74 -11 107.5 -57t68.5 -187l106 -432h-137l-94 397q-13 57 -23.5 91t-26 63t-31 42.5t-44 23t-59.5 12t-82 2.5h-113l-133 -631h-133zM373 750h76q126 0 186 8t115 33 q84 37 131 104.5t47 151.5q0 63 -31 110t-88 70q-62 26 -219 26h-111z" />
<glyph unicode="S" horiz-adv-x="1011" d="M53 55l41 129q78 -46 147.5 -67t151.5 -21q154 0 254.5 81t100.5 204q0 81 -48.5 137t-199.5 152q-138 86 -196 164.5t-58 179.5q0 166 129.5 270.5t335.5 104.5q138 0 301 -62l-43 -129q-124 72 -258 72q-144 0 -235 -68t-91 -176q0 -73 49.5 -128t198.5 -148 q146 -91 201 -166.5t55 -184.5q0 -183 -141.5 -302.5t-356.5 -119.5q-188 0 -338 78z" />
<glyph unicode="T" horiz-adv-x="1021" d="M348 0l266 1247h-413l24 115h961l-25 -115h-413l-267 -1247h-133z" />
<glyph unicode="U" horiz-adv-x="1361" d="M190 387q0 52 16 163.5t38 215.5l127 600h133l-127 -596q-55 -260 -55 -375q0 -136 84 -217.5t225 -81.5q277 0 391 273q21 51 35 105t51 231l139 661h133l-143 -672q-52 -241 -76 -319.5t-67 -147.5q-77 -120 -197 -185t-266 -65q-198 0 -319.5 113t-121.5 297z" />
<glyph unicode="V" horiz-adv-x="1228" d="M446 0l-229 1366h135l156 -969q21 -144 29 -286h8q47 121 178 344l537 911h143l-813 -1366h-144z" />
<glyph unicode="W" horiz-adv-x="1896" d="M338 0l-121 1366h133l72 -868q18 -236 18 -326q0 -34 -2 -63h8q41 131 121 288l492 969h168l55 -870q14 -247 14 -324q0 -36 -2 -63h9q54 161 122 288l502 969h141l-712 -1366h-164l-64 907q-10 150 -10 248q0 51 2 98h-8q-26 -90 -137 -311l-475 -942h-162z" />
<glyph unicode="X" horiz-adv-x="1241" d="M-68 0l662 725l-336 641h150l198 -389q27 -54 31 -64q3 -6 20 -43l15 -34l12 -29h8q76 94 158 180l350 379h174l-612 -647l356 -719h-149l-221 453l-21 45q-30 65 -31 69l-18 47q-4 8 -10 23l-23 -29l-29 -39q-35 -47 -73 -90l-439 -479h-172z" />
<glyph unicode="Y" horiz-adv-x="1222" d="M451 0l122 578l-356 788h148l204 -471q4 -10 16.5 -38.5t18.5 -43.5l10 -27q1 -3 4.5 -11.5t10 -25t12.5 -30.5q1 -3 3 -8.5t5.5 -14t5.5 -14.5q43 61 152 188l426 496h164l-692 -788l-123 -578h-131z" />
<glyph unicode="Z" horiz-adv-x="1038" d="M-33 0l27 125l883 1036q74 83 81 90l-59 -4h-41h-24h-582l24 115h861l-27 -123l-864 -1022q-22 -27 -33.5 -40.5t-25 -27.5t-17.5 -17.5t-25 -22.5q51 6 136 6h618l-25 -115h-907z" />
<glyph unicode="[" horiz-adv-x="649" d="M125 -311h190l-18 -84h-305l397 1870h305l-16 -86h-193z" />
<glyph unicode="\" horiz-adv-x="708" d="M575 -395l-378 1870h110l383 -1870h-115z" />
<glyph unicode="]" horiz-adv-x="649" d="M10 -309h191l362 1700h-190l16 84h305l-397 -1870h-305z" />
<glyph unicode="^" horiz-adv-x="1024" d="M111 762l370 606h162l369 -606h-135l-318 510l-313 -510h-135z" />
<glyph unicode="_" horiz-adv-x="1024" d="M49 -143h1024v-115h-1024v115z" />
<glyph unicode="`" horiz-adv-x="1024" d="M694 1159l-241 268h178l172 -268h-109z" />
<glyph unicode="a" horiz-adv-x="1015" d="M47 256q0 113 71.5 197t203.5 125q106 34 313 34q43 0 125 -6q8 65 8 105q0 89 -60 140.5t-163 51.5q-136 0 -297 -80l16 135q165 54 295 54q152 0 243 -79.5t91 -211.5q0 -67 -29 -209l-45 -207q-25 -107 -47 -305h-113q0 28 3 55q1 6 4.5 22t5.5 25l8 33q2 5 6 23 q-74 -93 -150.5 -132.5t-181.5 -39.5q-137 0 -222 74.5t-85 195.5zM178 260q0 -75 54 -120.5t145 -45.5q104 0 184.5 56t124.5 159q30 74 53 193l-98 2q-186 3 -295 -35q-80 -29 -124 -84t-44 -125z" />
<glyph unicode="b" horiz-adv-x="1107" d="M55 0q14 64 28.5 131.5t25.5 120.5l260 1223h127l-107 -498q-10 -51 -12 -55q-17 -66 -17 -68l-2 -20q69 97 144.5 137.5t185.5 40.5q166 0 260 -107.5t94 -296.5q0 -132 -42 -256.5t-119 -218.5q-129 -151 -338 -151q-141 0 -228 71q-35 29 -55 62.5t-39 93.5 q-21 -125 -47 -209h-119zM281 391q0 -132 72 -216.5t186 -84.5q103 0 188.5 69t134.5 188.5t49 262.5q0 137 -62 215t-171 78q-106 0 -197.5 -69t-145.5 -187.5t-54 -255.5z" />
<glyph unicode="c" horiz-adv-x="884" d="M303 190q75 -90 229 -90q52 0 96 9t136 38l-16 -122q-135 -33 -236 -33q-192 0 -309 122t-117 322q0 126 54 246t145 197q146 125 374 125q125 0 269 -39l-33 -121q-119 51 -244 51q-176 0 -295 -113q-63 -62 -100 -153.5t-37 -186.5q0 -155 84 -252z" />
<glyph unicode="d" horiz-adv-x="1110" d="M82 385q0 270 140 448.5t353 178.5q123 0 208 -57.5t110 -157.5h8q5 52 25 149l112 529h127l-254 -1196q-32 -162 -47 -279h-125q7 61 12 86t25 100q-55 -87 -96 -120q-44 -38 -112 -61t-136 -23q-161 0 -255.5 108.5t-94.5 294.5zM215 395q0 -144 62 -224.5t172 -80.5 q102 0 194 71t146.5 190t54.5 251q0 135 -71 218t-187 83q-155 0 -263 -147.5t-108 -360.5z" />
<glyph unicode="e" horiz-adv-x="1009" d="M78 399q0 138 51.5 269.5t140.5 220.5q123 123 314 123q167 0 265.5 -93t98.5 -253q0 -76 -24 -199h-705q-8 -36 -8 -72q0 -145 78 -225t219 -80q67 0 128 15t152 53l-8 -117q-133 -59 -284 -59q-195 0 -306.5 111t-111.5 306zM236 571h577q8 57 8 97q0 107 -65 171 t-174 64q-125 0 -217 -88.5t-129 -243.5z" />
<glyph unicode="f" horiz-adv-x="675" d="M158 0l188 893h-215l23 104h215l22 109q31 145 66 217q38 82 108 126t162 44q68 0 133 -23l-26 -108q-49 20 -93 20q-52 0 -95 -22t-66 -60q-12 -22 -30 -78t-28 -104l-26 -121h249l-22 -104h-250l-188 -893h-127z" />
<glyph unicode="g" horiz-adv-x="1130" d="M35 -231q83 -46 153 -66t154 -20q102 0 182 34.5t127 98.5q40 57 76 184q22 74 29 88l12 45q1 3 2.5 8.5t4.5 15t5 17.5q-78 -93 -156 -132.5t-184 -39.5q-161 0 -256.5 109.5t-95.5 294.5q0 120 40.5 238t111.5 206q126 160 346 160q125 0 209 -58t106 -159h8 q3 92 41 200h125q-25 -94 -57 -237l-125 -588q-41 -195 -63.5 -267.5t-59.5 -129.5q-128 -197 -428 -197q-167 0 -346 72zM221 399q0 -130 67.5 -209t178.5 -79q105 0 193 64t139 174t51 241q0 141 -70.5 226t-187.5 85q-152 0 -244 -115q-61 -75 -94 -175.5t-33 -211.5z " />
<glyph unicode="h" horiz-adv-x="1095" d="M55 0l314 1475h127l-101 -471l-8 -39q-10 -53 -16 -72l-15 -51q0 -1 -4 -21q80 106 155.5 148.5t184.5 42.5q138 0 219.5 -79.5t81.5 -213.5q0 -68 -41 -262l-98 -457h-127l96 451q39 183 39 251q0 90 -54.5 145.5t-143.5 55.5q-88 0 -167 -50.5t-130 -139.5 q-48 -85 -97 -305l-88 -408h-127z" />
<glyph unicode="i" horiz-adv-x="428" d="M313 1274l37 170h150l-37 -170h-150zM55 0l211 993h127l-211 -993h-127z" />
<glyph unicode="j" horiz-adv-x="432" d="M315 1274l35 170h150l-37 -170h-148zM45 -57l223 1050h127l-229 -1073q-26 -119 -39 -161t-35 -74q-73 -111 -207 -111q-69 0 -133 20l33 105q44 -16 76 -16q86 0 129 73q25 44 55 187z" />
<glyph unicode="k" horiz-adv-x="991" d="M55 0l314 1475h127l-164 -777q-9 -46 -31 -114h6q36 32 86 69l453 340h182l-604 -444l450 -549h-161l-351 432q-21 29 -22 29l-29 41l-20 24l-2 -10l-1.5 -7.5t-0.5 -4.5l-4 -27q-1 -2 -1.5 -6t-3 -17t-6.5 -32l-90 -422h-127z" />
<glyph unicode="l" horiz-adv-x="428" d="M55 0l314 1475h127l-314 -1475h-127z" />
<glyph unicode="m" horiz-adv-x="1665" d="M66 0l139 649q12 55 35 182q16 81 26 162h121q-3 -51 -6 -65q-1 -4 -4 -15t-8 -29.5t-9 -35.5q-2 -15 -6 -27q120 189 332 189q114 0 178 -59.5t70 -168.5q51 106 113 154q96 74 237 74q130 0 205.5 -73.5t75.5 -201.5q0 -45 -7 -83.5t-49 -239.5l-88 -412h-127l88 416 q54 259 54 297q0 85 -49.5 136.5t-131.5 51.5q-77 0 -147 -46.5t-117 -129.5q-50 -86 -96 -305l-90 -420h-127l90 420q35 163 43 208.5t8 88.5q0 86 -43.5 135t-118.5 49q-85 0 -156.5 -48.5t-121.5 -139.5q-55 -100 -96 -293l-90 -420h-127z" />
<glyph unicode="n" horiz-adv-x="1110" d="M68 0l151 709q15 68 49 284h125q-6 -57 -28 -147q0 -2 -7 -27q68 102 147.5 146.5t194.5 44.5q141 0 223.5 -78t82.5 -211q0 -80 -54 -334l-84 -387h-127l78 360q55 259 55 342q0 92 -54 145.5t-146 53.5q-85 0 -158.5 -45.5t-126.5 -128.5q-61 -99 -100 -278l-94 -449 h-127z" />
<glyph unicode="o" horiz-adv-x="1091" d="M80 412q0 123 43.5 234.5t117.5 191.5t176.5 127t215.5 47q178 0 285.5 -116t107.5 -308q0 -118 -40 -229t-114 -199q-150 -178 -385 -178q-185 0 -296 117.5t-111 312.5zM213 420q0 -151 76 -240.5t203 -89.5q84 0 158.5 40t127.5 112q54 72 84.5 163t30.5 181 q0 145 -74 231t-198 86q-167 0 -287.5 -142.5t-120.5 -340.5z" />
<glyph unicode="p" horiz-adv-x="1107" d="M203 55l-97 -448h-126l235 1108q37 174 51 278h117q-2 -37 -8 -65l-2.5 -12.5t-5 -20t-5.5 -21.5l-10 -38q0 -1 -4 -21q74 109 149.5 152t196.5 43q169 0 262 -101.5t93 -285.5q0 -130 -41.5 -251.5t-118.5 -217.5q-68 -83 -161 -127.5t-200 -44.5q-237 0 -303 211 q-6 -18 -6 -25l-4 -39q-6 -46 -12 -74zM283 373q0 -132 63.5 -207.5t175.5 -75.5q174 0 277 146q56 82 87.5 184.5t31.5 204.5q0 129 -64 202.5t-174 73.5q-107 0 -198.5 -70.5t-145 -192.5t-53.5 -265z" />
<glyph unicode="q" horiz-adv-x="1118" d="M88 393q0 139 44.5 263t127.5 214q128 140 324 140q82 0 150.5 -26t105.5 -71q25 -32 67 -133q17 106 24.5 139.5t22.5 73.5h125q-15 -49 -63 -270l-244 -1141h-127l76 352q34 154 57 232h-6q-106 -184 -319 -184q-170 0 -267.5 109.5t-97.5 301.5zM217 395 q0 -143 65.5 -224t182.5 -81q105 0 192 68.5t134 189.5q55 135 55 254q0 132 -72 215.5t-186 83.5q-160 0 -265.5 -144t-105.5 -362z" />
<glyph unicode="r" horiz-adv-x="686" d="M70 0l147 696q39 178 49 297h129q-9 -80 -37 -174h11q92 182 282 182q36 0 107 -10l-27 -133q-53 19 -94 19q-78 0 -144.5 -39.5t-109.5 -110.5q-48 -75 -88 -264l-98 -463h-127z" />
<glyph unicode="s" horiz-adv-x="792" d="M-4 43l41 119q141 -72 264 -72q113 0 182.5 51.5t69.5 134.5q0 78 -68 132q-34 26 -141 90q-102 60 -146 116.5t-44 126.5q0 63 36.5 122t96.5 93q95 56 237 56q130 0 258 -54l-39 -118q-111 63 -227 63q-101 0 -165 -42.5t-64 -108.5q0 -51 34.5 -85t165.5 -112 q106 -63 152.5 -126t46.5 -144q0 -61 -28 -120t-76 -99q-103 -84 -289 -84q-76 0 -139 13t-158 48z" />
<glyph unicode="t" horiz-adv-x="688" d="M207 199q0 68 43 272l88 418h-203l23 104h202l52 236l135 45l-60 -281h267l-23 -104h-266l-90 -426q-39 -191 -39 -260q0 -49 32.5 -77t88.5 -28q43 0 98 23l-16 -111q-56 -20 -113 -20q-106 0 -162.5 54t-56.5 155z" />
<glyph unicode="u" d="M135 303q0 55 7.5 108.5t33.5 170.5l88 411h127l-88 -411q-39 -179 -39 -258q0 -109 53.5 -171.5t147.5 -62.5q85 0 156 47.5t118 136.5q54 101 103 330l82 389h127l-136 -641q-40 -189 -63 -352h-117q12 89 19 120.5t22 69.5h-8q-47 -99 -134.5 -153.5t-197.5 -54.5 q-138 0 -219.5 86.5t-81.5 234.5z" />
<glyph unicode="v" horiz-adv-x="905" d="M283 0l-140 993h129l80 -612q21 -159 23 -268h8q40 91 100 200l373 680h139l-561 -993h-151z" />
<glyph unicode="w" horiz-adv-x="1574" d="M250 0l-107 993h129l60 -612q0 -4 1 -19t2.5 -37t2.5 -38l2 -72l2 -59q0 -3 0.5 -9t1.5 -17t2 -21q15 30 19 34l41 86q32 66 75 144l348 620h150l76 -616q16 -128 16 -221v-47h8q32 84 117 251l328 633h139l-533 -993h-153l-78 623q-12 98 -16 260h-9q-28 -82 -124 -256 l-349 -627h-151z" />
<glyph unicode="x" horiz-adv-x="909" d="M-68 0l471 530l-231 463h139l117 -243q8 -16 18 -41l27 -62q7 -21 14 -35q15 21 21 27q23 33 47 63l12 16t15 19l225 256h160l-418 -469l237 -524h-139l-127 289l-22 55l-25 72q0 2 -10 22q-28 -36 -31 -39q-47 -61 -51 -65l-39 -45l-252 -289h-158z" />
<glyph unicode="y" horiz-adv-x="903" d="M264 -55q2 2 5.5 8t8.5 15.5t9 15.5l-144 1009h129l72 -557q14 -117 18 -162q3 -30 6.5 -66t6 -59t4.5 -38q11 28 33 77q31 73 84 168l354 637h143l-557 -981q0 -1 -7.5 -13.5t-18 -32t-19.5 -36.5q-63 -115 -95.5 -166t-68.5 -94q-40 -44 -95 -69t-114 -25 q-64 0 -129 21l35 106q40 -18 76 -18q86 0 156 82q36 42 108 178z" />
<glyph unicode="z" horiz-adv-x="917" d="M-20 0l22 104l641 666l68 68q24 24 53 45q-74 -4 -86 -4h-78h-414l23 104h731l-20 -98l-674 -705l-17 -16q-16 -15 -30 -29q-25 -25 -45 -37q62 6 159 6h459l-22 -104h-770z" />
<glyph unicode="{" horiz-adv-x="1024" d="M244 -92l84 391q10 55 10 84q0 87 -86 113l18 84q70 22 105.5 65.5t54.5 130.5l88 420q31 146 113 212.5t233 66.5h31l-18 -89q-118 -1 -169.5 -43.5t-76.5 -158.5l-88 -414q-21 -100 -55.5 -151t-98.5 -82q35 -23 50.5 -53t15.5 -74q0 -39 -13 -111l-84 -397 q-14 -58 -14 -101q0 -58 39.5 -83t132.5 -27l-18 -86h-31q-127 0 -182.5 41t-55.5 135q0 46 15 127z" />
<glyph unicode="|" horiz-adv-x="1024" d="M500 -342v1708h123v-1708h-123z" />
<glyph unicode="}" horiz-adv-x="1024" d="M186 -309q119 3 171 46.5t77 158.5l86 411q21 100 55.5 151.5t98.5 82.5q-66 46 -66 129q0 51 13 108l86 398q12 69 12 102q0 57 -40 81.5t-132 26.5l18 89h33q125 0 180.5 -42t55.5 -135q0 -54 -15 -127l-84 -391q-10 -46 -10 -84q0 -86 86 -112l-18 -86 q-68 -20 -103.5 -64t-54.5 -133l-90 -418q-31 -146 -113 -212t-233 -66h-31z" />
<glyph unicode="~" horiz-adv-x="1366" d="M317 1204l-75 47q63 124 125 175t149 51q78 0 234 -76q89 -43 127.5 -56.5t74.5 -13.5q60 0 102 32.5t93 117.5l76 -45q-57 -114 -126.5 -168t-158.5 -54q-44 0 -95.5 18.5t-189.5 84.5q-93 43 -145 43q-57 0 -102 -36.5t-89 -119.5z" />
<glyph unicode="&#xa1;" horiz-adv-x="710" d="M276 827l35 166h160l-35 -166h-160zM20 -371l242 1028h115l-197 -1028h-160z" />
<glyph unicode="&#xa2;" d="M514 59l37 172q-141 23 -226 135t-85 273q0 156 80 287.5t212 191.5q94 44 220 47l30 146h90l-30 -148q79 -5 180 -33l-31 -112q-82 37 -174 43l-155 -735q51 1 88 9t120 34l-16 -115q-133 -32 -213 -29l-37 -166h-90zM573 334l156 729q-160 -12 -262 -130t-102 -290 q0 -124 54 -204t154 -105z" />
<glyph unicode="&#xa3;" d="M41 0l22 109h201l121 567h-180l24 108h179l24 113q34 158 70.5 242t95.5 139q123 117 338 117q125 0 242 -49l-39 -113q-64 29 -105.5 39t-95.5 10q-106 0 -187.5 -45t-121.5 -125q-23 -47 -39.5 -106.5t-52.5 -221.5h337l-24 -108h-336l-121 -567h508l-22 -109h-838z " />
<glyph unicode="&#xa4;" d="M195 139l-66 66l150 151q-82 105 -82 234q0 119 82 229l-154 154l65 65l154 -151q111 84 236 84q124 0 233 -84l154 151l65 -65l-151 -152q82 -109 82 -233q0 -126 -82 -232l153 -151l-65 -66l-154 152q-104 -82 -233 -82q-121 0 -236 82zM580 317q112 0 191 80t79 193 q0 110 -78.5 191t-187.5 81q-116 0 -195.5 -79.5t-79.5 -194.5q0 -111 79.5 -191t191.5 -80z" />
<glyph unicode="&#xa5;" d="M387 0l90 424h-366l22 108h369l8 46l-64 174h-286l22 108h226l-187 506h150l159 -473q51 -155 64 -211q5 8 17.5 29.5t18.5 31t19.5 30t30.5 43.5t41 54l385 496h160l-402 -506h226l-23 -108h-289l-137 -174l-10 -46h368l-22 -108h-369l-90 -424h-131z" />
<glyph unicode="&#xa6;" horiz-adv-x="1024" d="M500 690v676h123v-676h-123zM500 313h123v-655h-123v655z" />
<glyph unicode="&#xa7;" d="M18 -201q104 -54 186 -77t169 -23q145 0 241.5 75t96.5 187q0 82 -58 137q-37 36 -72 55.5t-200 96.5q-225 105 -225 295q0 70 31 135.5t87 112.5q34 29 70 51.5t117 66.5q-146 91 -146 244q0 148 120 243t306 95q166 0 351 -84l-45 -104q-154 79 -289 79 q-132 0 -217.5 -67.5t-85.5 -171.5q0 -85 63 -139q25 -23 54.5 -39t181.5 -88q125 -58 181 -124.5t56 -156.5q0 -104 -70 -196t-219 -183q80 -57 114 -113.5t34 -134.5q0 -161 -144.5 -273t-351.5 -112q-192 0 -377 95zM354 420q10 -9 16 -14.5t16.5 -12.5t17 -11t25 -13.5 t32.5 -16.5t47.5 -24.5t62.5 -32.5q11 -7 56 -29q123 91 180 169t57 157q0 43 -28.5 79.5t-92.5 76.5q-38 23 -208 108q-141 -80 -193.5 -141.5t-52.5 -147.5q0 -42 17.5 -81.5t47.5 -65.5z" />
<glyph unicode="&#xa8;" horiz-adv-x="1024" d="M774 1196l37 178h143l-36 -178h-144zM424 1196l37 178h143l-37 -178h-143z" />
<glyph unicode="&#xa9;" horiz-adv-x="1630" d="M162 682q0 145 56 276t151 225.5t227 150t278 55.5q186 0 346.5 -95.5t254.5 -258.5t94 -353t-94.5 -352.5t-256.5 -257.5t-352 -95t-352.5 95t-257 257.5t-94.5 352.5zM246 682q0 -169 83 -313.5t226 -229t311 -84.5t310.5 84t225.5 228.5t83 314.5q0 169 -82.5 314 t-223.5 230t-305 85q-173 0 -317.5 -83.5t-227.5 -228t-83 -317.5zM477 696q0 177 119.5 284t316.5 107q107 0 195 -34l-8 -90q-106 41 -191 41q-149 0 -239 -86.5t-90 -229.5q0 -142 89.5 -225.5t241.5 -83.5q96 0 191 41l4 -94l-6 -2l-21 -9q-53 -20 -159 -20 q-204 0 -323.5 107.5t-119.5 293.5z" />
<glyph unicode="&#xaa;" horiz-adv-x="724" d="M406 764q-90 0 -147.5 47t-57.5 121q0 69 47 122t133 79q72 20 201 20q36 0 67 -2q2 18 2 47q0 50 -36 78.5t-99 28.5q-82 0 -192 -52l10 101q109 35 198 35q98 0 158 -50.5t60 -132.5q0 -36 -17 -123l-26 -120q-14 -66 -27 -191h-90q0 43 8 70q-45 -42 -89 -60t-103 -18 zM422 848q88 0 139.5 53t73.5 166l-60 2q-136 4 -204 -30t-68 -101q0 -40 33 -65t86 -25zM154 600l18 88h506l-19 -88h-505z" />
<glyph unicode="&#xab;" horiz-adv-x="1077" d="M719 141l-197 441l342 368h123l-342 -389l176 -420h-102zM397 141l-194 441l342 368h123l-342 -389l176 -420h-105z" />
<glyph unicode="&#xac;" horiz-adv-x="1024" d="M119 432v115h887v-547h-123v432h-764z" />
<glyph unicode="&#xad;" horiz-adv-x="499" d="M2 463l23 108h499l-22 -108h-500z" />
<glyph unicode="&#xae;" horiz-adv-x="1630" d="M162 682q0 145 56 276t151 225.5t227 150t278 55.5q186 0 346.5 -95.5t254.5 -258.5t94 -353t-94.5 -352.5t-256.5 -257.5t-352 -95t-352.5 95t-257 257.5t-94.5 352.5zM246 682q0 -169 83 -313.5t226 -229t311 -84.5t310.5 84t225.5 228.5t83 314.5q0 169 -82.5 314 t-223.5 230t-305 85q-173 0 -317.5 -83.5t-227.5 -228t-83 -317.5zM631 301v782h170q83 0 125.5 -6.5t74.5 -25.5q105 -60 105 -174q0 -66 -41.5 -117.5t-110.5 -71.5q26 -13 41.5 -32t42.5 -74l136 -281h-107l-115 240q-37 77 -63.5 94.5t-104.5 17.5h-55v-352h-98z M729 737h55q116 0 166 39q54 41 54 98q0 33 -18.5 62.5t-49.5 44.5q-38 18 -137 18h-70v-262z" />
<glyph unicode="&#xaf;" horiz-adv-x="1024" d="M420 1229l20 100h516l-20 -100h-516z" />
<glyph unicode="&#xb0;" horiz-adv-x="765" d="M547 940q-119 0 -202 82t-83 199q0 112 84 193t201 81q118 0 201 -81t83 -195q0 -116 -83 -197.5t-201 -81.5zM547 1020q83 0 142 58.5t59 140.5t-59 139t-142 57q-82 0 -141.5 -57.5t-59.5 -136.5q0 -85 58 -143t143 -58z" />
<glyph unicode="&#xb1;" d="M483 252v391h-403v109h403v389h109v-389h403v-109h-403v-391h-109zM80 41v109h915v-109h-915z" />
<glyph unicode="&#xb2;" horiz-adv-x="505" d="M131 819l12 53l29 25q41 36 107 88q129 106 177 160t48 96q0 35 -27.5 58.5t-68.5 23.5q-55 0 -156 -49l2 76q101 41 160 41q74 0 121 -40.5t47 -103.5q0 -85 -121 -194q-78 -69 -207 -172q35 2 72 2h198l-14 -64h-379z" />
<glyph unicode="&#xb3;" horiz-adv-x="505" d="M137 842l23 65q74 -30 145 -30q70 0 115 33t45 85q0 92 -154 92h-35l15 68q25 -4 53 -4q79 0 125.5 26t46.5 70q0 37 -32.5 59.5t-84.5 22.5q-68 0 -143 -37l4 72q79 31 146 31q85 0 136.5 -38.5t51.5 -101.5q0 -98 -121 -141q72 -40 72 -115q0 -77 -70 -131.5 t-170 -54.5q-85 0 -168 29z" />
<glyph unicode="&#xb4;" horiz-adv-x="1024" d="M551 1159l229 268h189l-307 -268h-111z" />
<glyph unicode="&#xb5;" d="M178 119l-69 -512h-142l295 1386h127l-88 -411q-39 -177 -39 -258q0 -109 53.5 -171.5t147.5 -62.5q85 0 156 47.5t118 136.5q50 92 103 330l84 389h127l-138 -641q-13 -61 -22 -105.5t-14.5 -71.5t-9.5 -54.5t-5.5 -38t-4.5 -39.5t-5 -43h-119q13 89 20 120.5t21 69.5 h-6q-49 -100 -136.5 -154t-197.5 -54q-178 0 -256 137z" />
<glyph unicode="&#xb6;" d="M248 -395l221 1036h-31q-132 0 -210 73t-78 197q0 122 65.5 232.5t171.5 165.5q108 57 272 57h492l-21 -98h-116l-355 -1663h-106l352 1663h-196l-353 -1663h-108z" />
<glyph unicode="&#xb7;" horiz-adv-x="546" d="M195 455l34 166h160l-35 -166h-159z" />
<glyph unicode="&#xb8;" horiz-adv-x="1024" d="M346 -145l105 145h77l-73 -102q18 2 37 2q63 0 102 -33.5t39 -87.5q0 -68 -66.5 -118t-156.5 -50q-86 0 -183 47l43 61q75 -38 136 -38q49 0 82.5 23.5t33.5 57.5q0 32 -25 51t-67 19q-20 0 -59 -8z" />
<glyph unicode="&#xb9;" horiz-adv-x="505" d="M326 819l92 430q2 7 5 22.5t5 24.5q-3 -2 -35 -22l-67 -41l-41 51l182 100h55l-121 -565h-75z" />
<glyph unicode="&#xba;" horiz-adv-x="792" d="M489 762q-121 0 -194.5 73t-73.5 193q0 151 103 256t251 105q117 0 189 -73t72 -192q0 -152 -100.5 -257t-246.5 -105zM496 846q98 0 167.5 80.5t69.5 195.5q0 83 -46 133t-122 50q-100 0 -170.5 -79t-70.5 -190q0 -86 47 -138t125 -52zM152 600l18 88h555l-18 -88h-555z " />
<glyph unicode="&#xbb;" horiz-adv-x="1077" d="M451 141l342 389l-177 420h105l194 -440l-342 -369h-122zM131 141l342 389l-176 420h102l197 -440l-342 -369h-123z" />
<glyph unicode="&#xbc;" horiz-adv-x="1710" d="M461 0l776 1366h113l-779 -1366h-110zM383 547l133 624q9 40 21 84q-24 -16 -64 -41l-94 -57l-53 66l260 143h71l-174 -819h-100zM963 190l18 82l516 547h115l-115 -547h127l-16 -82h-129l-41 -190h-95l41 190h-421zM1087 270q14 2 78 2h238l67 326q4 19 8 33.5t11 39 t14 50.5q-11 -15 -23.5 -29.5t-19.5 -23.5q-2 -2 -8.5 -9.5t-17.5 -20t-23 -24.5l-248 -266q-25 -27 -76 -78z" />
<glyph unicode="&#xbd;" horiz-adv-x="1710" d="M461 0l776 1366h113l-779 -1366h-110zM383 547l133 624q9 40 21 84q-24 -16 -64 -41l-94 -57l-53 66l260 143h71l-174 -819h-100zM958 0l17 70q330 275 352 295q96 85 135 141t39 108q0 56 -41 89.5t-108 33.5q-82 0 -217 -69l4 100q139 59 227 59q106 0 173 -56.5 t67 -147.5q0 -127 -176 -283q-77 -68 -176.5 -150.5t-139.5 -111.5q49 2 121 2h285l-17 -80h-545z" />
<glyph unicode="&#xbe;" horiz-adv-x="1710" d="M109 575l30 87q96 -44 209 -44q104 0 173 51.5t69 129.5q0 139 -230 139h-49l19 86q66 -4 71 -4q120 0 189 40.5t69 110.5q0 56 -48 90.5t-126 34.5q-96 0 -204 -51l8 92q107 43 205 43q123 0 196.5 -54.5t73.5 -145.5q0 -46 -22 -88.5t-60 -71.5q-42 -29 -109 -47 q121 -53 121 -170q0 -112 -100.5 -190t-245.5 -78q-118 0 -239 40zM461 0l776 1366h113l-779 -1366h-110zM963 190l18 82l516 547h117l-117 -547h127l-16 -82h-129l-41 -190h-95l41 190h-421zM1087 270q14 2 78 2h238l70 326q6 33 30 123q-11 -15 -23.5 -29.5t-19.5 -23.5 l-14 -15l-35 -39l-248 -266q-25 -27 -76 -78z" />
<glyph unicode="&#xbf;" horiz-adv-x="1005" d="M549 827l37 166h159l-36 -166h-160zM25 -92q0 114 67 209q31 46 78 90t199 172q86 74 117 125t51 155h114q-13 -61 -21 -94t-25 -72.5t-32 -61t-51.5 -59.5t-74 -70t-107.5 -89q-101 -83 -143.5 -150.5t-42.5 -142.5q0 -83 71 -137.5t181 -54.5q91 0 247 51l-26 -121 q-139 -43 -248 -43q-161 0 -257.5 80.5t-96.5 212.5z" />
<glyph unicode="&#xc0;" horiz-adv-x="1337" d="M838 1497l-252 262h182l186 -262h-116zM-74 0l858 1366h160l277 -1366h-140l-69 371h-709l-229 -371h-148zM377 485h610l-108 570l-5 30l-12 76l-10 64q0 2 -1 5.5t-3 11t-4 13.5q-4 -8 -9 -15.5t-8 -12.5t-4 -6q-36 -65 -39 -70q-15 -30 -57 -100z" />
<glyph unicode="&#xc1;" horiz-adv-x="1337" d="M815 1497l227 262h191l-301 -262h-117zM-74 0l858 1366h160l277 -1366h-140l-69 371h-709l-229 -371h-148zM377 485h610l-108 570l-5 30l-12 76l-10 64q0 2 -1 5.5t-3 11t-4 13.5q-4 -8 -9 -15.5t-8 -12.5t-4 -6q-36 -65 -39 -70q-15 -30 -57 -100z" />
<glyph unicode="&#xc2;" horiz-adv-x="1337" d="M582 1497l290 262h150l180 -262h-143l-131 174l-205 -174h-141zM-74 0l858 1366h160l277 -1366h-140l-69 371h-709l-229 -371h-148zM377 485h610l-108 570l-5 30l-12 76l-10 64q0 2 -1 5.5t-3 11t-4 13.5q-4 -8 -9 -15.5t-8 -12.5t-4 -6q-36 -65 -39 -70 q-15 -30 -57 -100z" />
<glyph unicode="&#xc3;" horiz-adv-x="1337" d="M621 1540q19 80 75 132t123 52q35 0 94 -26l91 -41q41 -19 63 -19q29 0 47 16t37 58h86q-26 -92 -74 -135t-123 -43q-38 0 -79 18l-93 43q-54 23 -73 23q-31 0 -55 -21.5t-35 -56.5h-84zM-74 0l858 1366h160l277 -1366h-140l-69 371h-709l-229 -371h-148zM377 485h610 l-108 570l-5 30l-12 76l-10 64q0 2 -1 5.5t-3 11t-4 13.5q-4 -8 -9 -15.5t-8 -12.5t-4 -6q-36 -65 -39 -70q-15 -30 -57 -100z" />
<glyph unicode="&#xc4;" horiz-adv-x="1337" d="M1028 1528l39 182h152l-39 -182h-152zM637 1528l39 182h153l-38 -182h-154zM-74 0l858 1366h160l277 -1366h-140l-69 371h-709l-229 -371h-148zM377 485h610l-108 570l-5 30l-12 76l-10 64q0 2 -1 5.5t-3 11t-4 13.5q-4 -8 -9 -15.5t-8 -12.5t-4 -6q-36 -65 -39 -70 q-15 -30 -57 -100z" />
<glyph unicode="&#xc5;" horiz-adv-x="1337" d="M909 1450q-77 0 -130.5 54t-53.5 130q0 75 55 129t131 54q73 0 127 -55t54 -130t-54 -128.5t-129 -53.5zM909 1534q40 0 69.5 29t29.5 69q0 41 -29.5 71t-69.5 30q-41 0 -70.5 -29t-29.5 -70t29.5 -70.5t70.5 -29.5zM-74 0l858 1366h160l277 -1366h-140l-69 371h-709 l-229 -371h-148zM377 485h610l-108 570l-5 30l-12 76l-10 64q0 2 -1 5.5t-3 11t-4 13.5q-4 -8 -9 -15.5t-8 -12.5t-4 -6q-36 -65 -39 -70q-15 -30 -57 -100z" />
<glyph unicode="&#xc6;" horiz-adv-x="1755" d="M72 0h-158l1044 1368h846l-24 -115h-600l-60 -493h520l-24 -115h-510l-66 -530h521l-25 -115h-649l45 365h-580zM438 479h508l78 611q1 8 4 40t8 56l13 65l2 21h-15z" />
<glyph unicode="&#xc7;" horiz-adv-x="1210" d="M467 -289q73 -37 137 -37q46 0 79.5 26t33.5 62q0 32 -24.5 51t-67.5 19q-19 0 -58 -8l-24 31l94 133q-230 43 -360 202t-130 398q0 228 102.5 411.5t283.5 286.5t407 103q190 0 369 -76l-41 -117q-170 74 -336 74q-183 0 -330.5 -87.5t-231 -242.5t-83.5 -348 q0 -214 133 -355t334 -141q135 0 307 62l-19 -131q-139 -50 -327 -50l-58 -79q23 2 41 2q65 0 104.5 -34t39.5 -89q0 -75 -70 -127.5t-168 -52.5q-85 0 -182 47z" />
<glyph unicode="&#xc8;" horiz-adv-x="1009" d="M694 1497l-252 262h183l186 -262h-117zM80 0l291 1362h680l-25 -115h-549l-102 -481h520l-25 -115h-520l-112 -536h575l-25 -115h-708z" />
<glyph unicode="&#xc9;" horiz-adv-x="1009" d="M664 1497l227 262h190l-301 -262h-116zM80 0l291 1362h680l-25 -115h-549l-102 -481h520l-25 -115h-520l-112 -536h575l-25 -115h-708z" />
<glyph unicode="&#xca;" horiz-adv-x="1009" d="M440 1497l291 262h150l180 -262h-143l-132 174l-204 -174h-142zM80 0l291 1362h680l-25 -115h-549l-102 -481h520l-25 -115h-520l-112 -536h575l-25 -115h-708z" />
<glyph unicode="&#xcb;" horiz-adv-x="1009" d="M877 1528l38 182h152l-39 -182h-151zM485 1528l39 182h154l-39 -182h-154zM80 0l291 1362h680l-25 -115h-549l-102 -481h520l-25 -115h-520l-112 -536h575l-25 -115h-708z" />
<glyph unicode="&#xcc;" horiz-adv-x="485" d="M410 1497l-207 262h172l151 -262h-116zM80 0l291 1366h133l-291 -1366h-133z" />
<glyph unicode="&#xcd;" horiz-adv-x="485" d="M403 1497l195 262h182l-258 -262h-119zM80 0l291 1366h133l-291 -1366h-133z" />
<glyph unicode="&#xce;" horiz-adv-x="485" d="M207 1497l235 262h152l123 -262h-135l-78 180l-162 -180h-135zM80 0l291 1366h133l-291 -1366h-133z" />
<glyph unicode="&#xcf;" horiz-adv-x="485" d="M514 1528l39 182h143l-39 -182h-143zM276 1528l39 182h144l-39 -182h-144zM80 0l291 1366h133l-291 -1366h-133z" />
<glyph unicode="&#xd0;" horiz-adv-x="1325" d="M80 0l139 657h-149l22 111h152l127 598h180q154 0 220 -6t132 -25q182 -54 278.5 -189.5t96.5 -336.5q0 -258 -132 -462.5t-355 -289.5q-91 -35 -180 -46t-292 -11h-239zM238 115h145q137 0 219 12t154 43q174 75 277.5 249t103.5 392q0 262 -197 381q-57 34 -128 46.5 t-208 12.5h-125l-102 -483h381l-23 -111h-381z" />
<glyph unicode="&#xd1;" horiz-adv-x="1368" d="M651 1540q19 80 75.5 132t123.5 52q36 0 94 -26l90 -41q41 -19 64 -19q29 0 47 16t37 58h86q-26 -92 -74 -135t-123 -43q-39 0 -80 18l-92 43q-54 23 -74 23q-31 0 -55 -21.5t-35 -56.5h-84zM80 0l297 1366h164l364 -952q60 -161 90 -262h11q10 98 51 292l196 922h133 l-290 -1366h-170l-371 969q-61 155 -82 248h-8q-4 -53 -35 -205l-215 -1012h-135z" />
<glyph unicode="&#xd2;" horiz-adv-x="1435" d="M903 1497l-252 262h183l186 -262h-117zM133 545q0 224 99 420.5t268 310.5q169 113 383 113q232 0 370 -147.5t138 -397.5q0 -173 -58 -341.5t-159 -291.5q-91 -109 -228 -171.5t-289 -62.5q-246 0 -385 151t-139 417zM279 541q0 -204 106 -324.5t287 -120.5 q108 0 204.5 42.5t165.5 119.5q100 115 156.5 267.5t56.5 314.5q0 241 -149 354q-102 76 -236 76q-189 0 -333 -123q-117 -100 -187.5 -265.5t-70.5 -340.5z" />
<glyph unicode="&#xd3;" horiz-adv-x="1435" d="M854 1497l227 262h191l-301 -262h-117zM133 545q0 224 99 420.5t268 310.5q169 113 383 113q232 0 370 -147.5t138 -397.5q0 -173 -58 -341.5t-159 -291.5q-91 -109 -228 -171.5t-289 -62.5q-246 0 -385 151t-139 417zM279 541q0 -204 106 -324.5t287 -120.5 q108 0 204.5 42.5t165.5 119.5q100 115 156.5 267.5t56.5 314.5q0 241 -149 354q-102 76 -236 76q-189 0 -333 -123q-117 -100 -187.5 -265.5t-70.5 -340.5z" />
<glyph unicode="&#xd4;" horiz-adv-x="1435" d="M629 1497l291 262h149l180 -262h-143l-131 174l-205 -174h-141zM133 545q0 224 99 420.5t268 310.5q169 113 383 113q232 0 370 -147.5t138 -397.5q0 -173 -58 -341.5t-159 -291.5q-91 -109 -228 -171.5t-289 -62.5q-246 0 -385 151t-139 417zM279 541q0 -204 106 -324.5 t287 -120.5q108 0 204.5 42.5t165.5 119.5q100 115 156.5 267.5t56.5 314.5q0 241 -149 354q-102 76 -236 76q-189 0 -333 -123q-117 -100 -187.5 -265.5t-70.5 -340.5z" />
<glyph unicode="&#xd5;" horiz-adv-x="1435" d="M672 1540q19 80 75 132t123 52q36 0 95 -26l90 -41q41 -19 63 -19q29 0 47 16t37 58h86q-26 -92 -73.5 -135t-122.5 -43q-40 0 -80 18l-92 43q-54 23 -74 23q-31 0 -55 -21.5t-35 -56.5h-84zM133 545q0 224 99 420.5t268 310.5q169 113 383 113q232 0 370 -147.5 t138 -397.5q0 -173 -58 -341.5t-159 -291.5q-91 -109 -228 -171.5t-289 -62.5q-246 0 -385 151t-139 417zM279 541q0 -204 106 -324.5t287 -120.5q108 0 204.5 42.5t165.5 119.5q100 115 156.5 267.5t56.5 314.5q0 241 -149 354q-102 76 -236 76q-189 0 -333 -123 q-117 -100 -187.5 -265.5t-70.5 -340.5z" />
<glyph unicode="&#xd6;" horiz-adv-x="1435" d="M1079 1528l39 182h152l-39 -182h-152zM688 1528l39 182h154l-39 -182h-154zM133 545q0 224 99 420.5t268 310.5q169 113 383 113q232 0 370 -147.5t138 -397.5q0 -173 -58 -341.5t-159 -291.5q-91 -109 -228 -171.5t-289 -62.5q-246 0 -385 151t-139 417zM279 541 q0 -204 106 -324.5t287 -120.5q108 0 204.5 42.5t165.5 119.5q100 115 156.5 267.5t56.5 314.5q0 241 -149 354q-102 76 -236 76q-189 0 -333 -123q-117 -100 -187.5 -265.5t-70.5 -340.5z" />
<glyph unicode="&#xd7;" d="M303 319l-78 78l299 299l-299 299l78 78l299 -299l299 299l78 -78l-299 -299l299 -299l-78 -78l-299 299z" />
<glyph unicode="&#xd8;" horiz-adv-x="1435" d="M104 27l132 145q-103 153 -103 377q0 221 99 417t268 310q169 113 377 113q101 0 178.5 -26t163.5 -89l124 135l74 -66l-129 -145q101 -146 101 -356q0 -172 -58.5 -340.5t-159.5 -290.5q-91 -109 -227 -171.5t-285 -62.5q-216 0 -358 121l-123 -139zM338 276l782 902 q-92 92 -256 92q-159 0 -294 -97.5t-213 -265.5t-78 -368q0 -77 10.5 -124t48.5 -139zM401 201q102 -105 271 -105q109 0 205 42t165 120q100 112 155.5 265.5t55.5 314.5q0 162 -65 264z" />
<glyph unicode="&#xd9;" horiz-adv-x="1361" d="M872 1497l-251 262h182l186 -262h-117zM190 387q0 52 16 163.5t38 215.5l127 600h133l-127 -596q-55 -260 -55 -375q0 -136 84 -217.5t225 -81.5q277 0 391 273q21 51 35 105t51 231l139 661h133l-143 -672q-52 -241 -76 -319.5t-67 -147.5q-77 -120 -197 -185t-266 -65 q-198 0 -319.5 113t-121.5 297z" />
<glyph unicode="&#xda;" horiz-adv-x="1361" d="M829 1497l228 262h190l-301 -262h-117zM190 387q0 52 16 163.5t38 215.5l127 600h133l-127 -596q-55 -260 -55 -375q0 -136 84 -217.5t225 -81.5q277 0 391 273q21 51 35 105t51 231l139 661h133l-143 -672q-52 -241 -76 -319.5t-67 -147.5q-77 -120 -197 -185t-266 -65 q-198 0 -319.5 113t-121.5 297z" />
<glyph unicode="&#xdb;" horiz-adv-x="1361" d="M606 1497l291 262h150l180 -262h-144l-131 174l-204 -174h-142zM190 387q0 52 16 163.5t38 215.5l127 600h133l-127 -596q-55 -260 -55 -375q0 -136 84 -217.5t225 -81.5q277 0 391 273q21 51 35 105t51 231l139 661h133l-143 -672q-52 -241 -76 -319.5t-67 -147.5 q-77 -120 -197 -185t-266 -65q-198 0 -319.5 113t-121.5 297z" />
<glyph unicode="&#xdc;" horiz-adv-x="1361" d="M1036 1528l39 182h152l-39 -182h-152zM645 1528l39 182h154l-39 -182h-154zM190 387q0 52 16 163.5t38 215.5l127 600h133l-127 -596q-55 -260 -55 -375q0 -136 84 -217.5t225 -81.5q277 0 391 273q21 51 35 105t51 231l139 661h133l-143 -672q-52 -241 -76 -319.5 t-67 -147.5q-77 -120 -197 -185t-266 -65q-198 0 -319.5 113t-121.5 297z" />
<glyph unicode="&#xdd;" horiz-adv-x="1222" d="M735 1497l228 262h190l-301 -262h-117zM451 0l122 578l-356 788h148l204 -471q4 -10 16.5 -38.5t18.5 -43.5l10 -27q1 -3 4.5 -11.5t10 -25t12.5 -30.5q1 -3 3 -8.5t5.5 -14t5.5 -14.5q43 61 152 188l426 496h164l-692 -788l-123 -578h-131z" />
<glyph unicode="&#xde;" horiz-adv-x="1003" d="M80 0l291 1370h135l-45 -209h69q141 0 204 -9t118 -38q78 -41 123 -120t45 -177q0 -138 -82 -247.5t-217 -153.5q-95 -33 -320 -33h-106l-82 -383h-133zM319 500h78q242 0 326 47q75 40 116.5 111t41.5 159q0 150 -123 201q-68 29 -232 29h-90z" />
<glyph unicode="&#xdf;" horiz-adv-x="1091" d="M55 0l201 942q39 181 67.5 260.5t77.5 138.5q122 152 332 152q158 0 251 -85.5t93 -231.5q0 -88 -35 -169t-96 -135q-46 -40 -95 -60.5t-120 -27.5q277 -50 277 -313q0 -86 -33 -173.5t-90 -156.5q-128 -151 -357 -151q-101 0 -221 35l37 116q103 -43 203 -43 q135 0 229 106.5t94 258.5q0 78 -40.5 141.5t-108.5 91.5q-66 25 -176 25h-15l23 115q94 0 152 16q110 29 176.5 112.5t66.5 192.5q0 101 -62.5 164t-162.5 63q-82 0 -148.5 -43t-109.5 -124q-24 -44 -40.5 -101.5t-45.5 -191.5l-197 -924h-127z" />
<glyph unicode="&#xe0;" horiz-adv-x="1015" d="M592 1159l-242 268h178l172 -268h-108zM47 256q0 113 71.5 197t203.5 125q106 34 313 34q43 0 125 -6q8 65 8 105q0 89 -60 140.5t-163 51.5q-136 0 -297 -80l16 135q165 54 295 54q152 0 243 -79.5t91 -211.5q0 -67 -29 -209l-45 -207q-25 -107 -47 -305h-113q0 28 3 55 q1 6 4.5 22t5.5 25l8 33q2 5 6 23q-74 -93 -150.5 -132.5t-181.5 -39.5q-137 0 -222 74.5t-85 195.5zM178 260q0 -75 54 -120.5t145 -45.5q104 0 184.5 56t124.5 159q30 74 53 193l-98 2q-186 3 -295 -35q-80 -29 -124 -84t-44 -125z" />
<glyph unicode="&#xe1;" horiz-adv-x="1015" d="M541 1159l229 268h188l-307 -268h-110zM47 256q0 113 71.5 197t203.5 125q106 34 313 34q43 0 125 -6q8 65 8 105q0 89 -60 140.5t-163 51.5q-136 0 -297 -80l16 135q165 54 295 54q152 0 243 -79.5t91 -211.5q0 -67 -29 -209l-45 -207q-25 -107 -47 -305h-113q0 28 3 55 q1 6 4.5 22t5.5 25l8 33q2 5 6 23q-74 -93 -150.5 -132.5t-181.5 -39.5q-137 0 -222 74.5t-85 195.5zM178 260q0 -75 54 -120.5t145 -45.5q104 0 184.5 56t124.5 159q30 74 53 193l-98 2q-186 3 -295 -35q-80 -29 -124 -84t-44 -125z" />
<glyph unicode="&#xe2;" horiz-adv-x="1015" d="M332 1159l272 268h152l157 -268h-129l-120 191l-203 -191h-129zM47 256q0 113 71.5 197t203.5 125q106 34 313 34q43 0 125 -6q8 65 8 105q0 89 -60 140.5t-163 51.5q-136 0 -297 -80l16 135q165 54 295 54q152 0 243 -79.5t91 -211.5q0 -67 -29 -209l-45 -207 q-25 -107 -47 -305h-113q0 28 3 55q1 6 4.5 22t5.5 25l8 33q2 5 6 23q-74 -93 -150.5 -132.5t-181.5 -39.5q-137 0 -222 74.5t-85 195.5zM178 260q0 -75 54 -120.5t145 -45.5q104 0 184.5 56t124.5 159q30 74 53 193l-98 2q-186 3 -295 -35q-80 -29 -124 -84t-44 -125z" />
<glyph unicode="&#xe3;" horiz-adv-x="1015" d="M360 1210q19 80 67 126t114 46q44 0 108 -28l58 -27q35 -16 46 -19t33 -3q29 0 47 15t35 54h78q-48 -174 -178 -174q-47 0 -104 25l-66 30q-48 21 -82 21q-41 0 -78 -66h-78zM47 256q0 113 71.5 197t203.5 125q106 34 313 34q43 0 125 -6q8 65 8 105q0 89 -60 140.5 t-163 51.5q-136 0 -297 -80l16 135q165 54 295 54q152 0 243 -79.5t91 -211.5q0 -67 -29 -209l-45 -207q-25 -107 -47 -305h-113q0 28 3 55q1 6 4.5 22t5.5 25l8 33q2 5 6 23q-74 -93 -150.5 -132.5t-181.5 -39.5q-137 0 -222 74.5t-85 195.5zM178 260q0 -75 54 -120.5 t145 -45.5q104 0 184.5 56t124.5 159q30 74 53 193l-98 2q-186 3 -295 -35q-80 -29 -124 -84t-44 -125z" />
<glyph unicode="&#xe4;" horiz-adv-x="1015" d="M737 1196l37 178h144l-37 -178h-144zM387 1196l37 178h143l-37 -178h-143zM47 256q0 113 71.5 197t203.5 125q106 34 313 34q43 0 125 -6q8 65 8 105q0 89 -60 140.5t-163 51.5q-136 0 -297 -80l16 135q165 54 295 54q152 0 243 -79.5t91 -211.5q0 -67 -29 -209l-45 -207 q-25 -107 -47 -305h-113q0 28 3 55q1 6 4.5 22t5.5 25l8 33q2 5 6 23q-74 -93 -150.5 -132.5t-181.5 -39.5q-137 0 -222 74.5t-85 195.5zM178 260q0 -75 54 -120.5t145 -45.5q104 0 184.5 56t124.5 159q30 74 53 193l-98 2q-186 3 -295 -35q-80 -29 -124 -84t-44 -125z" />
<glyph unicode="&#xe5;" horiz-adv-x="1015" d="M655 1120q-76 0 -130 54t-54 131q0 75 54.5 128.5t131.5 53.5q74 0 127.5 -54.5t53.5 -129.5t-54 -129t-129 -54zM655 1204q40 0 69.5 29.5t29.5 69.5q0 41 -29.5 70.5t-69.5 29.5q-41 0 -70.5 -28.5t-29.5 -69.5t29.5 -71t70.5 -30zM47 256q0 113 71.5 197t203.5 125 q106 34 313 34q43 0 125 -6q8 65 8 105q0 89 -60 140.5t-163 51.5q-136 0 -297 -80l16 135q165 54 295 54q152 0 243 -79.5t91 -211.5q0 -67 -29 -209l-45 -207q-25 -107 -47 -305h-113q0 28 3 55q1 6 4.5 22t5.5 25l8 33q2 5 6 23q-74 -93 -150.5 -132.5t-181.5 -39.5 q-137 0 -222 74.5t-85 195.5zM178 260q0 -75 54 -120.5t145 -45.5q104 0 184.5 56t124.5 159q30 74 53 193l-98 2q-186 3 -295 -35q-80 -29 -124 -84t-44 -125z" />
<glyph unicode="&#xe6;" horiz-adv-x="1583" d="M47 260q0 87 51 158t144 112q124 56 368 56q47 0 113 -2q12 74 12 108q0 98 -50.5 153.5t-141.5 55.5q-114 0 -277 -78l19 125q133 62 268 62q252 0 276 -209q38 95 134 151t219 56q164 0 250 -90.5t86 -262.5q0 -65 -17 -176h-670q-10 -49 -10 -88q0 -139 76 -220 t207 -81q120 0 244 53l-15 -120q-137 -41 -248 -41q-177 0 -266 92q-36 37 -54 75.5t-28 102.5q-37 -132 -130 -201t-234 -69q-143 0 -234.5 77.5t-91.5 200.5zM850 584h539q6 46 6 78q0 114 -56 175.5t-159 61.5q-71 0 -139 -36.5t-115 -100.5q-27 -35 -42.5 -72.5 t-33.5 -105.5zM176 262q0 -76 55 -124t142 -48q189 0 276 193q35 78 53 196q-131 0 -188 -4q-338 -21 -338 -213z" />
<glyph unicode="&#xe7;" horiz-adv-x="884" d="M303 190q75 -90 229 -90q52 0 96 9t136 38l-16 -122q-140 -35 -218 -35q-10 0 -20 2l-68 -94q18 2 37 2q63 0 102.5 -33.5t39.5 -87.5q0 -68 -66.5 -118t-157.5 -50q-86 0 -180 47l43 61q72 -38 133 -38q49 0 83 23.5t34 57.5q0 32 -25 51t-67 19q-21 0 -60 -8l-22 31 l100 141q-161 25 -255.5 143.5t-94.5 296.5q0 126 54 246t145 197q146 125 374 125q125 0 269 -39l-33 -121q-119 51 -244 51q-176 0 -295 -113q-63 -62 -100 -153.5t-37 -186.5q0 -155 84 -252z" />
<glyph unicode="&#xe8;" horiz-adv-x="1009" d="M621 1159l-242 268h178l172 -268h-108zM78 399q0 138 51.5 269.5t140.5 220.5q123 123 314 123q167 0 265.5 -93t98.5 -253q0 -76 -24 -199h-705q-8 -36 -8 -72q0 -145 78 -225t219 -80q67 0 128 15t152 53l-8 -117q-133 -59 -284 -59q-195 0 -306.5 111t-111.5 306z M236 571h577q8 57 8 97q0 107 -65 171t-174 64q-125 0 -217 -88.5t-129 -243.5z" />
<glyph unicode="&#xe9;" horiz-adv-x="1009" d="M575 1159l230 268h188l-307 -268h-111zM78 399q0 138 51.5 269.5t140.5 220.5q123 123 314 123q167 0 265.5 -93t98.5 -253q0 -76 -24 -199h-705q-8 -36 -8 -72q0 -145 78 -225t219 -80q67 0 128 15t152 53l-8 -117q-133 -59 -284 -59q-195 0 -306.5 111t-111.5 306z M236 571h577q8 57 8 97q0 107 -65 171t-174 64q-125 0 -217 -88.5t-129 -243.5z" />
<glyph unicode="&#xea;" horiz-adv-x="1009" d="M369 1159l272 268h152l157 -268h-129l-121 191l-202 -191h-129zM78 399q0 138 51.5 269.5t140.5 220.5q123 123 314 123q167 0 265.5 -93t98.5 -253q0 -76 -24 -199h-705q-8 -36 -8 -72q0 -145 78 -225t219 -80q67 0 128 15t152 53l-8 -117q-133 -59 -284 -59 q-195 0 -306.5 111t-111.5 306zM236 571h577q8 57 8 97q0 107 -65 171t-174 64q-125 0 -217 -88.5t-129 -243.5z" />
<glyph unicode="&#xeb;" horiz-adv-x="1009" d="M768 1196l37 178h143l-37 -178h-143zM418 1196l37 178h143l-37 -178h-143zM78 399q0 138 51.5 269.5t140.5 220.5q123 123 314 123q167 0 265.5 -93t98.5 -253q0 -76 -24 -199h-705q-8 -36 -8 -72q0 -145 78 -225t219 -80q67 0 128 15t152 53l-8 -117q-133 -59 -284 -59 q-195 0 -306.5 111t-111.5 306zM236 571h577q8 57 8 97q0 107 -65 171t-174 64q-125 0 -217 -88.5t-129 -243.5z" />
<glyph unicode="&#xec;" horiz-adv-x="428" d="M326 1159l-205 268h172l131 -268h-98zM55 0l211 993h127l-211 -993h-127z" />
<glyph unicode="&#xed;" horiz-adv-x="428" d="M317 1159l189 268h182l-270 -268h-101zM55 0l211 993h127l-211 -993h-127z" />
<glyph unicode="&#xee;" horiz-adv-x="428" d="M121 1159l219 268h149l105 -268h-123l-70 197l-157 -197h-123zM55 0l211 993h127l-211 -993h-127z" />
<glyph unicode="&#xef;" horiz-adv-x="428" d="M418 1196l37 178h133l-37 -178h-133zM188 1196l37 178h133l-36 -178h-134zM55 0l211 993h127l-211 -993h-127z" />
<glyph unicode="&#xf0;" horiz-adv-x="1091" d="M80 416q0 160 73.5 297t199.5 217t274 80q128 0 211 -60q36 -27 71 -90q3 94 -43.5 215.5t-109.5 179.5l-217 -133l-58 80l183 115q-5 2 -25 12q-56 29 -86 39.5t-88 20.5l39 92q159 -20 272 -99l215 131l56 -81l-193 -117q94 -91 139 -236t45 -358q0 -155 -24.5 -266 t-81.5 -207q-155 -264 -447 -264q-183 0 -294 118.5t-111 313.5zM211 426q0 -154 76 -244t205 -90q206 0 329 217q70 127 70 281q0 138 -74 224.5t-194 86.5q-111 0 -206 -64t-150.5 -173.5t-55.5 -237.5z" />
<glyph unicode="&#xf1;" horiz-adv-x="1110" d="M428 1210q19 80 66.5 126t113.5 46q45 0 109 -28l57 -27q34 -16 46 -19t34 -3q29 0 47 15t35 54h78q-48 -174 -178 -174q-48 0 -105 25l-65 30q-48 21 -82 21q-41 0 -78 -66h-78zM68 0l151 709q15 68 49 284h125q-6 -57 -28 -147q0 -2 -7 -27q68 102 147.5 146.5 t194.5 44.5q141 0 223.5 -78t82.5 -211q0 -80 -54 -334l-84 -387h-127l78 360q55 259 55 342q0 92 -54 145.5t-146 53.5q-85 0 -158.5 -45.5t-126.5 -128.5q-61 -99 -100 -278l-94 -449h-127z" />
<glyph unicode="&#xf2;" horiz-adv-x="1091" d="M633 1159l-242 268h178l172 -268h-108zM80 412q0 123 43.5 234.5t117.5 191.5t176.5 127t215.5 47q178 0 285.5 -116t107.5 -308q0 -118 -40 -229t-114 -199q-150 -178 -385 -178q-185 0 -296 117.5t-111 312.5zM213 420q0 -151 76 -240.5t203 -89.5q84 0 158.5 40 t127.5 112q54 72 84.5 163t30.5 181q0 145 -74 231t-198 86q-167 0 -287.5 -142.5t-120.5 -340.5z" />
<glyph unicode="&#xf3;" horiz-adv-x="1091" d="M590 1159l229 268h189l-308 -268h-110zM80 412q0 123 43.5 234.5t117.5 191.5t176.5 127t215.5 47q178 0 285.5 -116t107.5 -308q0 -118 -40 -229t-114 -199q-150 -178 -385 -178q-185 0 -296 117.5t-111 312.5zM213 420q0 -151 76 -240.5t203 -89.5q84 0 158.5 40 t127.5 112q54 72 84.5 163t30.5 181q0 145 -74 231t-198 86q-167 0 -287.5 -142.5t-120.5 -340.5z" />
<glyph unicode="&#xf4;" horiz-adv-x="1091" d="M399 1159l273 268h151l158 -268h-129l-121 191l-203 -191h-129zM80 412q0 123 43.5 234.5t117.5 191.5t176.5 127t215.5 47q178 0 285.5 -116t107.5 -308q0 -118 -40 -229t-114 -199q-150 -178 -385 -178q-185 0 -296 117.5t-111 312.5zM213 420q0 -151 76 -240.5 t203 -89.5q84 0 158.5 40t127.5 112q54 72 84.5 163t30.5 181q0 145 -74 231t-198 86q-167 0 -287.5 -142.5t-120.5 -340.5z" />
<glyph unicode="&#xf5;" horiz-adv-x="1091" d="M430 1210q19 80 66.5 126t113.5 46q45 0 109 -28l57 -27q34 -16 46 -19t34 -3q29 0 47 15t35 54h78q-48 -174 -178 -174q-48 0 -105 25l-65 30q-48 21 -82 21q-41 0 -78 -66h-78zM80 412q0 123 43.5 234.5t117.5 191.5t176.5 127t215.5 47q178 0 285.5 -116t107.5 -308 q0 -118 -40 -229t-114 -199q-150 -178 -385 -178q-185 0 -296 117.5t-111 312.5zM213 420q0 -151 76 -240.5t203 -89.5q84 0 158.5 40t127.5 112q54 72 84.5 163t30.5 181q0 145 -74 231t-198 86q-167 0 -287.5 -142.5t-120.5 -340.5z" />
<glyph unicode="&#xf6;" horiz-adv-x="1091" d="M809 1196l37 178h143l-37 -178h-143zM459 1196l37 178h143l-37 -178h-143zM80 412q0 123 43.5 234.5t117.5 191.5t176.5 127t215.5 47q178 0 285.5 -116t107.5 -308q0 -118 -40 -229t-114 -199q-150 -178 -385 -178q-185 0 -296 117.5t-111 312.5zM213 420 q0 -151 76 -240.5t203 -89.5q84 0 158.5 40t127.5 112q54 72 84.5 163t30.5 181q0 145 -74 231t-198 86q-167 0 -287.5 -142.5t-120.5 -340.5z" />
<glyph unicode="&#xf7;" d="M512 889v178h178v-178h-178zM143 643v109h916v-109h-916zM512 328v178h178v-178h-178z" />
<glyph unicode="&#xf8;" horiz-adv-x="1091" d="M63 23l101 110q-84 121 -84 283q0 161 74 298.5t200 217.5t273 80q136 0 252 -80l92 102l71 -61l-98 -109q38 -43 60 -119t22 -165q0 -112 -40.5 -221.5t-113.5 -198.5q-150 -178 -383 -178q-156 0 -262 84l-92 -105zM258 231l533 613q-71 59 -175 59q-107 0 -200 -65.5 t-148 -176.5t-55 -239q0 -63 9 -101t36 -90zM313 152q71 -62 181 -62q108 0 200 67.5t145.5 182.5t53.5 250q0 53 -8 88.5t-33 87.5z" />
<glyph unicode="&#xf9;" d="M659 1159l-241 268h178l172 -268h-109zM135 303q0 55 7.5 108.5t33.5 170.5l88 411h127l-88 -411q-39 -179 -39 -258q0 -109 53.5 -171.5t147.5 -62.5q85 0 156 47.5t118 136.5q54 101 103 330l82 389h127l-136 -641q-40 -189 -63 -352h-117q12 89 19 120.5t22 69.5h-8 q-47 -99 -134.5 -153.5t-197.5 -54.5q-138 0 -219.5 86.5t-81.5 234.5z" />
<glyph unicode="&#xfa;" d="M610 1159l230 268h188l-307 -268h-111zM135 303q0 55 7.5 108.5t33.5 170.5l88 411h127l-88 -411q-39 -179 -39 -258q0 -109 53.5 -171.5t147.5 -62.5q85 0 156 47.5t118 136.5q54 101 103 330l82 389h127l-136 -641q-40 -189 -63 -352h-117q12 89 19 120.5t22 69.5h-8 q-47 -99 -134.5 -153.5t-197.5 -54.5q-138 0 -219.5 86.5t-81.5 234.5z" />
<glyph unicode="&#xfb;" d="M416 1159l272 268h152l157 -268h-129l-120 191l-203 -191h-129zM135 303q0 55 7.5 108.5t33.5 170.5l88 411h127l-88 -411q-39 -179 -39 -258q0 -109 53.5 -171.5t147.5 -62.5q85 0 156 47.5t118 136.5q54 101 103 330l82 389h127l-136 -641q-40 -189 -63 -352h-117 q12 89 19 120.5t22 69.5h-8q-47 -99 -134.5 -153.5t-197.5 -54.5q-138 0 -219.5 86.5t-81.5 234.5z" />
<glyph unicode="&#xfc;" d="M817 1196l37 178h143l-36 -178h-144zM467 1196l37 178h143l-37 -178h-143zM135 303q0 55 7.5 108.5t33.5 170.5l88 411h127l-88 -411q-39 -179 -39 -258q0 -109 53.5 -171.5t147.5 -62.5q85 0 156 47.5t118 136.5q54 101 103 330l82 389h127l-136 -641q-40 -189 -63 -352 h-117q12 89 19 120.5t22 69.5h-8q-47 -99 -134.5 -153.5t-197.5 -54.5q-138 0 -219.5 86.5t-81.5 234.5z" />
<glyph unicode="&#xfd;" horiz-adv-x="903" d="M504 1159l229 268h189l-308 -268h-110zM264 -55q2 2 5.5 8t8.5 15.5t9 15.5l-144 1009h129l72 -557q14 -117 18 -162q3 -30 6.5 -66t6 -59t4.5 -38q11 28 33 77q31 73 84 168l354 637h143l-557 -981q0 -1 -7.5 -13.5t-18 -32t-19.5 -36.5q-63 -115 -95.5 -166t-68.5 -94 q-40 -44 -95 -69t-114 -25q-64 0 -129 21l35 106q40 -18 76 -18q86 0 156 82q36 42 108 178z" />
<glyph unicode="&#xfe;" horiz-adv-x="1105" d="M201 55l-97 -448h-124l331 1558q37 174 49 279h117l-131 -629q74 109 150.5 153t195.5 44q167 0 261 -102t94 -285q0 -130 -41.5 -253t-118.5 -218q-68 -83 -161 -127.5t-200 -44.5q-234 0 -303 211q-4 -24 -4 -25l-4 -39l-4.5 -27t-9.5 -47zM283 375q0 -134 63.5 -209.5 t175.5 -75.5q82 0 154 38t119 108q56 81 87 185t31 208q0 127 -63.5 200.5t-173.5 73.5q-106 0 -196.5 -71t-143.5 -193t-53 -264z" />
<glyph unicode="&#xff;" horiz-adv-x="903" d="M711 1196l37 178h143l-37 -178h-143zM360 1196l37 178h144l-37 -178h-144zM264 -55q2 2 5.5 8t8.5 15.5t9 15.5l-144 1009h129l72 -557q14 -117 18 -162q3 -30 6.5 -66t6 -59t4.5 -38q11 28 33 77q31 73 84 168l354 637h143l-557 -981q0 -1 -7.5 -13.5t-18 -32 t-19.5 -36.5q-63 -115 -95.5 -166t-68.5 -94q-40 -44 -95 -69t-114 -25q-64 0 -129 21l35 106q40 -18 76 -18q86 0 156 82q36 42 108 178z" />
<glyph unicode="&#x152;" horiz-adv-x="1759" d="M313 139q-172 169 -172 451q0 188 73 353t204 274q195 163 491 163q67 0 152 -6q74 -4 190 -4h559l-22 -115h-553l-107 -493h525l-25 -115h-522l-115 -532h574l-25 -115h-469h-125q-36 0 -90 -4l-63 -4q-23 -2 -74 -2q-254 0 -406 149zM287 600q0 -228 116.5 -359.5 t317.5 -131.5q70 0 141 18l236 1112q-95 23 -176 23q-282 0 -458.5 -184t-176.5 -478z" />
<glyph unicode="&#x153;" horiz-adv-x="1679" d="M82 395q0 131 50 258.5t136 216.5q63 66 151 102t187 36q138 0 223.5 -62t102.5 -176q47 116 139 177t221 61q152 0 240 -89.5t88 -244.5q0 -76 -27 -211h-641q-16 -63 -16 -107q0 -123 78.5 -194.5t210.5 -71.5q123 0 237 60l-16 -127q-128 -41 -244 -41q-182 0 -276 88 q-33 33 -50.5 68t-27.5 95q-112 -251 -389 -251q-172 0 -274.5 112.5t-102.5 300.5zM973 567h512q10 65 10 103q0 107 -54 168t-149 61q-73 0 -135.5 -36.5t-105.5 -102.5q-41 -64 -78 -193zM217 401q0 -141 69.5 -226t184.5 -85q192 0 299 221q66 138 66 289q0 141 -63 220 t-177 79q-156 0 -260 -131q-119 -153 -119 -367z" />
<glyph unicode="&#x178;" horiz-adv-x="1222" d="M954 1528l39 182h152l-39 -182h-152zM563 1528l39 182h154l-39 -182h-154zM451 0l122 578l-356 788h148l204 -471q4 -10 16.5 -38.5t18.5 -43.5l10 -27q1 -3 4.5 -11.5t10 -25t12.5 -30.5q1 -3 3 -8.5t5.5 -14t5.5 -14.5q43 61 152 188l426 496h164l-692 -788l-123 -578 h-131z" />
<glyph unicode="&#x2c6;" horiz-adv-x="1024" d="M373 1159l272 268h152l157 -268h-129l-120 191l-203 -191h-129z" />
<glyph unicode="&#x2dc;" horiz-adv-x="1024" d="M399 1210q19 80 67 126t114 46q44 0 108 -28l57 -27q34 -16 46 -19t34 -3q29 0 47 15t35 54h78q-48 -174 -178 -174q-48 0 -105 25l-65 30q-48 21 -82 21q-41 0 -78 -66h-78z" />
<glyph unicode="&#x2000;" horiz-adv-x="908" />
<glyph unicode="&#x2001;" horiz-adv-x="1817" />
<glyph unicode="&#x2002;" horiz-adv-x="908" />
<glyph unicode="&#x2003;" horiz-adv-x="1817" />
<glyph unicode="&#x2004;" horiz-adv-x="605" />
<glyph unicode="&#x2005;" horiz-adv-x="454" />
<glyph unicode="&#x2006;" horiz-adv-x="302" />
<glyph unicode="&#x2007;" horiz-adv-x="302" />
<glyph unicode="&#x2008;" horiz-adv-x="227" />
<glyph unicode="&#x2009;" horiz-adv-x="363" />
<glyph unicode="&#x200a;" horiz-adv-x="100" />
<glyph unicode="&#x2010;" horiz-adv-x="499" d="M2 463l23 108h499l-22 -108h-500z" />
<glyph unicode="&#x2011;" horiz-adv-x="499" d="M2 463l23 108h499l-22 -108h-500z" />
<glyph unicode="&#x2012;" horiz-adv-x="499" d="M2 463l23 108h499l-22 -108h-500z" />
<glyph unicode="&#x2013;" d="M152 463l22 108h801l-23 -108h-800z" />
<glyph unicode="&#x2014;" horiz-adv-x="1345" d="M2 463l23 108h1347l-24 -108h-1346z" />
<glyph unicode="&#x2018;" horiz-adv-x="509" d="M233 1001l240 433h131l-203 -433h-168z" />
<glyph unicode="&#x2019;" horiz-adv-x="509" d="M233 1001l203 433h168l-239 -433h-132z" />
<glyph unicode="&#x201a;" horiz-adv-x="509" d="M166 168h168l-240 -432h-131z" />
<glyph unicode="&#x201c;" horiz-adv-x="800" d="M524 1001l242 433h129l-203 -433h-168zM233 1001l240 433h131l-203 -433h-168z" />
<glyph unicode="&#x201d;" horiz-adv-x="800" d="M524 1001l203 433h168l-240 -433h-131zM233 1001l203 433h168l-239 -433h-132z" />
<glyph unicode="&#x201e;" horiz-adv-x="800" d="M254 -266l203 434h168l-240 -434h-131zM166 168h168l-240 -434h-131z" />
<glyph unicode="&#x2022;" horiz-adv-x="1366" d="M686 410q-118 0 -201.5 82.5t-83.5 199.5q0 120 83.5 202.5t203.5 82.5q115 0 198 -84t83 -201t-83 -199.5t-200 -82.5z" />
<glyph unicode="&#x2026;" horiz-adv-x="1642" d="M1194 0l35 166h160l-35 -166h-160zM645 0l37 166h160l-37 -166h-160zM98 0l35 166h160l-35 -166h-160z" />
<glyph unicode="&#x202f;" horiz-adv-x="363" />
<glyph unicode="&#x2039;" horiz-adv-x="757" d="M397 141l-194 441l342 368h123l-342 -389l176 -420h-105z" />
<glyph unicode="&#x203a;" horiz-adv-x="757" d="M131 141l342 389l-176 420h102l197 -440l-342 -369h-123z" />
<glyph unicode="&#x205f;" horiz-adv-x="454" />
<glyph unicode="&#x20ac;" horiz-adv-x="1380" d="M113 551l55 104h104q1 11 2.5 21.5t4.5 23t4 21.5h-133l55 104h102q82 258 272 411t429 153q222 0 360 -132l-68 -127q-110 140 -301 140q-180 0 -322 -118t-216 -327h678l-56 -104h-651q-5 -23 -12 -66h631l-56 -104h-583q0 -212 104 -333.5t287 -121.5q166 0 297 94 l-33 -155q-139 -58 -276 -58q-247 0 -386 152t-139 422h-153z" />
<glyph unicode="&#x2122;" horiz-adv-x="1673" d="M739 588l166 782h135l131 -532l7 -31l10 -49q6 -24 10 -47q12 20 41 67l12 19l19 28l366 545h138l-166 -782h-99l121 575q2 12 9 36.5t12 43.5q-24 -39 -60 -92l-377 -563h-79l-138 557q-4 15 -7 30t-7 35.5t-8 38.5q-2 -18 -17 -88l-120 -573h-99zM287 588l147 696h-248 l19 84h596l-19 -84h-250l-147 -696h-98z" />
<glyph unicode="&#xe000;" horiz-adv-x="993" d="M0 993h993v-993h-993v993z" />
</font>
</defs>
</svg>
